<svg width="872" height="86" viewBox="0 0 872 86" fill="none" xmlns="http://www.w3.org/2000/svg">
<path d="M849.367 78.3652L849.376 78.3609C855.76 75.1684 860.671 70.5771 864.045 64.5982C867.484 58.5599 869.165 51.5117 869.165 43.524C869.165 35.5382 867.484 28.4916 864.048 22.4543C860.678 16.4089 855.772 11.7804 849.388 8.58554C843.075 5.3178 835.658 3.724 827.205 3.724H803.769H801.769V5.724V81V83H803.769H827.205C835.651 83 843.059 81.4811 849.367 78.3652ZM847.911 22.9944L847.911 22.9945L847.921 23.0044C852.644 27.7927 855.121 34.5419 855.121 43.524C855.121 52.4348 852.679 59.1087 848.034 63.8225C843.412 68.4415 836.58 70.9 827.205 70.9H815.597V15.716H827.205C836.491 15.716 843.284 18.2368 847.911 22.9944Z" stroke="white" stroke-width="4"/>
<path d="M795.332 73.008V71.008H793.332H768.98V5.724V3.724H766.98H757.152H755.152V5.724V81V83H757.152H793.332H795.332V81V73.008Z" stroke="white" stroke-width="4"/>
<path d="M729.353 82.0066L729.931 83H731.081H742.853H746.383L744.568 79.9719L727.042 50.7285C732.101 49.1904 736.117 46.5699 738.942 42.7844C742.238 38.4631 743.881 33.4636 743.881 27.864C743.881 23.2989 742.833 19.1624 740.69 15.5116C738.52 11.8153 735.252 8.93793 730.997 6.84788C726.76 4.7312 721.648 3.724 715.745 3.724H691.445H689.445V5.724V81V83H691.445H701.273H703.273V81V52.22H712.003L729.353 82.0066ZM726.36 18.95L726.37 18.9594L726.38 18.9687C728.538 20.9521 729.729 23.819 729.729 27.864C729.729 31.8148 728.549 34.7984 726.328 37.024C724.173 39.115 720.771 40.336 715.745 40.336H703.273V15.824H715.745C720.891 15.824 724.291 16.9961 726.36 18.95Z" stroke="white" stroke-width="4"/>
<path d="M620.558 78.6298L620.566 78.6345L620.574 78.6391C626.651 82.0572 633.363 83.756 640.671 83.756C648.046 83.756 654.796 82.0589 660.875 78.6391L660.883 78.6345L660.892 78.6298C666.964 75.138 671.755 70.3071 675.242 64.1676C678.742 58.0035 680.471 51.0327 680.471 43.308C680.471 35.5832 678.742 28.6124 675.242 22.4483C671.755 16.3079 666.961 11.5101 660.883 8.08943C654.803 4.59533 648.051 2.85999 640.671 2.85999C633.359 2.85999 626.643 4.59717 620.566 8.08949C614.486 11.5115 609.66 16.345 606.103 22.5494L606.103 22.5494L606.1 22.5563C602.601 28.7175 600.871 35.6515 600.871 43.308C600.871 50.9648 602.601 57.9306 606.094 64.1585L606.101 64.1712L606.109 64.1837C609.666 70.3145 614.489 75.1402 620.558 78.6298ZM653.82 67.8191L653.814 67.8228L653.807 67.8266C649.964 70.0795 645.603 71.224 640.671 71.224C635.742 71.224 631.34 70.0807 627.42 67.8228C623.586 65.5741 620.529 62.3649 618.245 58.137C616.046 53.9341 614.915 49.0099 614.915 43.308C614.915 37.5261 616.049 32.6068 618.241 28.4847C620.527 24.2516 623.588 21.0392 627.426 18.7894C631.265 16.5389 635.661 15.392 640.671 15.392C645.68 15.392 650.076 16.5389 653.915 18.7894C657.749 21.0369 660.77 24.2437 662.983 28.468L662.992 28.4849L663.001 28.5016C665.26 32.6201 666.427 37.533 666.427 43.308C666.427 49.0055 665.262 53.9254 662.995 58.1261L662.989 58.137L662.983 58.148C660.775 62.3635 657.724 65.5693 653.82 67.8191Z" stroke="white" stroke-width="4"/>
<path d="M597.708 6.28072L598.449 3.724H595.787H585.203H583.656L583.268 5.22116L568.636 61.5476L553.329 5.19971L552.929 3.724H551.399H540.383H538.873L538.46 5.17714L522.336 61.898L507.76 5.22583L507.374 3.724H505.823H495.347H492.712L493.421 6.26213L514.481 81.6461L514.894 83.1231L516.427 83.1079L527.335 82.9999L528.809 82.9853L529.231 81.5738L545.424 27.5001L561.034 81.5549L561.451 83H562.955H573.971H575.474L575.892 81.5567L597.708 6.28072Z" stroke="white" stroke-width="4"/>
<path d="M401.499 78.6298L401.507 78.6345L401.516 78.6391C407.592 82.0572 414.305 83.756 421.612 83.756C428.987 83.756 435.737 82.0589 441.817 78.6391L441.825 78.6345L441.833 78.6298C447.906 75.138 452.697 70.3071 456.183 64.1676C459.684 58.0035 461.412 51.0327 461.412 43.308C461.412 35.5832 459.684 28.6124 456.183 22.4483C452.696 16.3079 447.903 11.5101 441.825 8.08943C435.745 4.59533 428.992 2.85999 421.612 2.85999C414.3 2.85999 407.584 4.59717 401.507 8.08949C395.427 11.5115 390.601 16.345 387.045 22.5494L387.045 22.5494L387.041 22.5563C383.542 28.7175 381.812 35.6515 381.812 43.308C381.812 50.9648 383.542 57.9306 387.036 64.1585L387.043 64.1712L387.05 64.1837C390.607 70.3145 395.43 75.1402 401.499 78.6298ZM434.761 67.8191L434.755 67.8228L434.749 67.8266C430.905 70.0795 426.544 71.224 421.612 71.224C416.683 71.224 412.282 70.0807 408.361 67.8228C404.528 65.5741 401.47 62.3649 399.186 58.137C396.987 53.9341 395.856 49.0099 395.856 43.308C395.856 37.5261 396.99 32.6068 399.183 28.4847C401.468 24.2516 404.529 21.0392 408.367 18.7894C412.206 16.5389 416.603 15.392 421.612 15.392C426.621 15.392 431.018 16.5389 434.857 18.7894C438.691 21.0369 441.712 24.2437 443.924 28.468L443.933 28.4849L443.942 28.5016C446.201 32.6201 447.368 37.533 447.368 43.308C447.368 49.0055 446.203 53.9254 443.936 58.1261L443.93 58.137L443.924 58.148C441.716 62.3635 438.666 65.5693 434.761 67.8191Z" stroke="white" stroke-width="4"/>
<path d="M316.597 78.6298L316.605 78.6345L316.613 78.6391C322.69 82.0572 329.402 83.756 336.71 83.756C344.085 83.756 350.835 82.0589 356.914 78.6391L356.922 78.6345L356.931 78.6298C363.003 75.138 367.794 70.3071 371.281 64.1676C374.781 58.0035 376.51 51.0327 376.51 43.308C376.51 35.5832 374.781 28.6124 371.281 22.4483C367.794 16.3079 363 11.5101 356.922 8.08943C350.842 4.59533 344.09 2.85999 336.71 2.85999C329.398 2.85999 322.682 4.59717 316.605 8.08949C310.525 11.5115 305.699 16.345 302.143 22.5494L302.142 22.5494L302.139 22.5563C298.64 28.7175 296.91 35.6515 296.91 43.308C296.91 50.9648 298.64 57.9306 302.133 64.1585L302.141 64.1712L302.148 64.1837C305.705 70.3145 310.528 75.1402 316.597 78.6298ZM349.859 67.8191L349.853 67.8228L349.846 67.8266C346.003 70.0795 341.642 71.224 336.71 71.224C331.781 71.224 327.379 70.0807 323.459 67.8228C319.625 65.5741 316.568 62.3649 314.284 58.137C312.085 53.9341 310.954 49.0099 310.954 43.308C310.954 37.5261 312.088 32.6068 314.281 28.4847C316.566 24.2516 319.627 21.0392 323.465 18.7894C327.304 16.5389 331.7 15.392 336.71 15.392C341.719 15.392 346.115 16.5389 349.954 18.7894C353.788 21.0369 356.809 24.2437 359.022 28.468L359.031 28.4849L359.04 28.5016C361.299 32.6201 362.466 37.533 362.466 43.308C362.466 49.0055 361.301 53.9254 359.034 58.1261L359.028 58.137L359.022 58.148C356.814 62.3635 353.763 65.5693 349.859 67.8191Z" stroke="white" stroke-width="4"/>
<path d="M282.735 44.0094C281.726 43.197 280.666 42.5064 279.556 41.9399C281.683 40.6851 283.532 39.1202 285.084 37.2387C287.876 33.8708 289.215 29.6889 289.215 24.84C289.215 20.8887 288.222 17.2772 286.211 14.06C284.174 10.8011 281.153 8.29663 277.266 6.50585C273.334 4.622 268.671 3.724 263.347 3.724H236.347H234.347V5.724V81V83H236.347H264.427C269.692 83 274.352 82.0975 278.347 80.2176L278.354 80.2141L278.362 80.2105C282.386 78.2756 285.536 75.6345 287.71 72.2535L287.715 72.2446L287.721 72.2355C289.874 68.8065 290.943 64.9789 290.943 60.804C290.943 57.4728 290.188 54.3217 288.68 51.3777C287.256 48.4568 285.271 45.9934 282.735 44.0094ZM273.5 51.5279L273.511 51.5374L273.523 51.5467C275.884 53.4948 277.115 56.1731 277.115 59.832C277.115 63.4431 275.938 66.0486 273.723 67.9142C271.461 69.8189 268.161 70.9 263.563 70.9H248.175V48.332H263.239C267.723 48.332 271.072 49.4643 273.5 51.5279ZM262.699 36.232H248.175V15.824H262.483C266.961 15.824 270.061 16.8437 272.09 18.5825C274.098 20.3035 275.171 22.6986 275.171 26.028C275.171 29.3574 274.098 31.7525 272.09 33.4735C270.051 35.2207 267.014 36.232 262.699 36.232Z" stroke="white" stroke-width="4"/>
<path d="M221.68 6.26401V4.26401H219.68H209.204H207.908L207.378 5.447L181.556 63.1441L155.733 5.447L155.204 4.26401H153.908H143.324H141.324V6.26401V81V83H143.324H153.152H155.152V81V34.5429L176.274 81.8159L176.803 83H178.1H185.012H186.31L186.839 81.8143L207.852 34.6715V81V83H209.852H219.68H221.68V81V6.26401Z" stroke="white" stroke-width="4"/>
<path d="M76.1664 83H77.5703L78.0474 81.6796L83.6183 66.26H113.642L119.213 81.6796L119.69 83H121.094H131.462H134.314L133.343 80.3189L106.235 5.47492L105.757 4.15601H104.354H93.0144H91.6136L91.1348 5.47252L63.9188 80.3165L62.943 83H65.7984H76.1664ZM87.8626 54.268L98.6304 24.1865L109.398 54.268H87.8626Z" stroke="white" stroke-width="4"/>
<path d="M50.7035 44.0094C49.6944 43.197 48.6344 42.5064 47.5249 41.9399C49.6521 40.6851 51.5006 39.1202 53.0532 37.2387C55.8453 33.8708 57.184 29.6889 57.184 24.84C57.184 20.8887 56.1908 17.2772 54.18 14.06C52.1432 10.8011 49.1216 8.29664 45.2347 6.50585C41.303 4.622 36.6398 3.724 31.316 3.724H4.31604H2.31604V5.724V81V83H4.31604H32.396C37.661 83 42.3208 82.0975 46.3156 80.2176L46.3231 80.2141L46.3306 80.2105C50.3552 78.2756 53.5049 75.6345 55.6784 72.2535L55.6842 72.2446L55.6898 72.2355C57.8429 68.8065 58.912 64.9789 58.912 60.804C58.912 57.4728 58.1571 54.3217 56.6491 51.3777C55.2246 48.4568 53.2393 45.9935 50.7035 44.0094ZM41.4687 51.5279L41.4799 51.5374L41.4913 51.5467C43.8525 53.4947 45.084 56.1731 45.084 59.832C45.084 63.4431 43.9072 66.0486 41.6918 67.9142C39.43 69.8189 36.1302 70.9 31.532 70.9H16.144V48.332H31.208C35.6918 48.332 39.041 49.4643 41.4687 51.5279ZM30.668 36.232H16.144V15.824H30.452C34.9295 15.824 38.0299 16.8437 40.0585 18.5825C42.0663 20.3035 43.14 22.6986 43.14 26.028C43.14 29.3574 42.0663 31.7525 40.0585 33.4735C38.02 35.2207 34.9832 36.232 30.668 36.232Z" stroke="white" stroke-width="4"/>
</svg>
